# xmcd
#
# Track frame offsets:
#	150
#	14839
#	26792
#	39326
#	50636
#	60576
#	70120
#	91697
#	106400
#	122737
#	136819
#	145361
#	157572
#	169455
#	182064
#
# Disc length: 2672 seconds
#
# Revision: 1
# Processed by: cddbd v1.5.2PL0 Copyright (c) Steve Scherf et al.
# Submitted via: audiograbber 1.81.03
#
DISCID=cb0a6e0f
DTITLE=Cohen, Andy - Built Right on the Ground
DYEAR=2010
DGENRE=Folk
TTITLE0=Built Right on the Ground (Teddy Darby)
TTITLE1=Railroad Blues (Sam McGee)
TTITLE2=Cairo Blues (Henry Spaulding)
TTITLE3=Honky Tonk Train (Meade Lux Lewis)
TTITLE4=Soo Cow Soo (Memphis Minnie)
TTITLE5=Jim Dickinson Stomp (Andy Cohen)
TTITLE6=My Old Pal (Jimmie Rodgers)
TTITLE7=Temptation Rag (Henry Lodge)
TTITLE8=Mopper's Blues (Big Bill Broonzy)
TTITLE9=Miss the Mississippi and You (Jimmie Rodgers)
TTITLE10=Grandpa's Spells (Jelly Roll Morton)
TTITLE11=Me and My Chauffeur (Memphis Minnie)
TTITLE12=Shake-a-You Boogie (Jim Brewer)
TTITLE13=Mean Talkin' Blues (Woody Guthrie)
TTITLE14=Tennessee Blues (Bobby Charles)
EXTD=Published by Earwig Music (www.earwigmusic.com). Andy Cohen vocals and gui
EXTD=tar - piano (4,6), dolceola (6) - Larkin Bryant vocals (15), mandolin (10,15
EXTD=) - Kurt Anderson (lead vocals 7, 2nd guitar (10).
EXTT0=
EXTT1=
EXTT2=
EXTT3=
EXTT4=
EXTT5=
EXTT6=
EXTT7=
EXTT8=
EXTT9=
EXTT10=
EXTT11=
EXTT12=
EXTT13=
EXTT14=
PLAYORDER=
